#!OML:ASF F:\VICON\USERDATA\INSTALL\rory3\rory3.ASF
:FULLY-SPECIFIED
:DEGREES
101
root 0.3928131495233957 17.79001441152313 40.695764089377086 -4.723456368919515 -3.9729929029386 -1.8232624910099304
lfemur -15.359502742160782 -2.2113754647750548 -21.446964683155397
ltibia 30.460079110102136
lfoot -7.964842162861233 -1.8211322032098423
ltoes -4.452005392023414
rfemur -10.672539994390323 -1.871507969478313 23.284994013224335
rtibia 69.91329437854299
rfoot 4.4791492358240355 -5.491388474322544
rtoes 18.896332455285613
lowerback 1.0 1.7369473543035 0.7860896544232875
upperback 0.6790007044597476 2.357650413709694 0.7356189001892384
thorax -5.160835917824696 1.2018894376720908 0.17361721096872063
lowerneck -15.52849926921066 -2.9679070308060567 -2.3780491906365464
upperneck 19.557080599009666 -3.991354047520621 1.6237599941074223
head 8.72307227070289 -1.841617149037338 0.39641299852287276
lclavicle -8.516755833997185e-16 -2.653383995140895e-15
lhumerus -32.19684970109302 6.382797175690268 80.30803579148747
lradius 20.979459156513734
lwrist 2.724572548284659
lhand -28.19920243045158 21.846508095311442
lfingers nan
lthumb -1.4390369368944695 52.1081930795666
rclavicle -4.504233053056839e-16 -2.229809759433702e-15
rhumerus -27.561560737108472 -18.296873903029457 -81.0566084023017
rradius 21.366827155064726
rwrist 3.3709946047188493
rhand -18.444800051534955 1.0
rfingers nan
rthumb 7.9688623359439585 -7.145240580244717
102
root 0.42393075285159704 17.818337493469915 41.35841419662248 -4.704793632721033 -3.595353620042629 -1.1910763314158936
lfemur -12.17906781489522 -2.4548973697468246 -22.461010932837358
ltibia 28.969124697597046
lfoot -9.252018156784073 -0.7809976196886572
ltoes -4.580106886687064
rfemur -15.52388481417171 -2.9298651867347685 22.600529374466383
rtibia 72.63272804153708
rfoot 0.3761707856930787 -7.1218940299687095
rtoes 16.763766509153488
lowerback 1.0 1.408790556833727 0.26027239314422856
upperback 0.789000305862847 1.876496659300082 0.7343837269067616
thorax -5.185904413351786 0.9767429573365898 0.6007528094562816
lowerneck -15.63435325735553 -2.9177857730155856 -2.5631622006549524
upperneck 19.530162762005535 -3.85876260277674 1.639655808756924
head 8.748218245018395 -1.8017607596418441 0.43075571551131814
lclavicle -8.779190496926383e-16 -2.664348324057787e-15
lhumerus -30.995303868657636 5.081828766679052 80.65246122934289
lradius 22.24703218621488
lwrist 3.389730441516387
lhand -28.07206250641588 22.200950678166635
lfingers nan
lthumb -1.2138027322642224 52.64516519100921
rclavicle -4.877760148017736e-16 -2.247984251525346e-15
rhumerus -28.129689876837134 -18.88225334789108 -80.90987388819491
rradius 21.213649981407922
rwrist 3.3422889882936806
rhand -18.366847456097755 1.0
rfingers nan
rthumb 7.992982324148136 -7.249349286018461
103
root 0.45188578611822394 17.872267457110823 41.47447276618507 -4.594103360968992 -3.0396779965979324 -0.7363003718869163
lfemur -9.40199034822299 -2.934282252049901 -23.411078564112806
ltibia 27.892618537551222
lfoot -10.343927198223101 0.07162077656955024
ltoes -4.799332501114202
rfemur -20.142790852281053 -3.673962686175516 22.200692404886738
rtibia 72.58519972608997
rfoot -3.1845503688892736 -7.070112734799604
rtoes 13.559082245799951
lowerback 1.0 1.0725197579185821 -0.20724018740008532
upperback 0.8989765853722412 1.3830607047233727 0.7846463134963225
thorax -5.18313056763647 0.7398008483683578 1.0276625447602716
lowerneck -15.776345094349985 -2.8940158318494054 -2.756081461255964
upperneck 19.47063668665084 -3.7743184269886574 1.6895150072022467
head 8.770733717601562 -1.7747314031130073 0.4701936071713905
lclavicle -9.140301713171442e-16 -2.6840494692711974e-15
lhumerus -29.79183766440342 3.7565581626779507 80.93858922707582
lradius 23.649860582135283
lwrist 3.9611504408564944
lhand -27.717306161591033 22.809138645429048
lfingers nan
lthumb -0.8375112618684669 53.35674291657565
rclavicle -5.389860139195946e-16 -2.276736121328256e-15
rhumerus -28.71377177728632 -19.388170831459068 -80.69631724535557
rradius 21.157072773146997
rwrist 3.1435044774809935
rhand -18.318306076105095 1.0
rfingers nan
rthumb 7.973882822475909 -7.352548595746016
104
root 0.4488799258407499 17.88997744271759 41.731445479642524 -4.357204345959298 -2.4378253508970467 -0.6129444611707036
lfemur -7.145020284005978 -3.400281536406622 -23.9696062254417
ltibia 27.558420974757276
lfoot -10.65984327566184 1.0102239979253556
ltoes -4.913034910501186
rfemur -23.71674851390833 -3.65801466764076 22.109007083011246
rtibia 69.52355704485272
rfoot -5.509046772562437 -6.575805894827907
rtoes 10.262489939128585
lowerback 1.0 0.7233822922912779 -0.38388645055431514
upperback 0.9706575369016474 0.9170426934752789 0.953126961715883
thorax -5.189455950277446 0.5089972534562055 1.4096168325249618
lowerneck -15.918753716480703 -2.869649108310555 -2.918649042653586
upperneck 19.36789694355847 -3.698989963827824 1.7360557080977803
head 8.780038018750844 -1.748950680977 0.5027991977162627
lclavicle -9.327597950931882e-16 -2.6922185012231423e-15
lhumerus -28.651996102161377 2.5052820614060303 81.15226862456839
lradius 25.148578498388297
lwrist 4.477495641057353
lhand -27.2559935554742 23.640341331698206
lfingers nan
lthumb -0.43880449393618376 54.16721108477987
rclavicle -5.892973737742505e-16 -2.3079407714767193e-15
rhumerus -29.315892361820637 -19.75447136588658 -80.43083285131571
rradius 21.183781330041302
rwrist 2.850661082716347
rhand -18.2930122507739 1.0
rfingers nan
rthumb 7.983722666721974 -7.331034674270143
105
root 0.45863050532617317 17.904294568586067 42.136988936375566 -4.000733571140275 -1.6173793560231937 -0.18502115394164909
lfemur -4.807054562028086 -3.7010552887555686 -24.778376674668102
ltibia 26.838257362166324
lfoot -10.591675557360741 1.2083162338074311
ltoes -5.188433204929235
rfemur -26.848856271465515 -3.3413029538760703 21.62418434540118
rtibia 63.95264053643329
rfoot -7.280306823369107 -6.791355606706913
rtoes 7.181723447748265
lowerback 1.0 0.3421376908018463 -0.9695554207207207
upperback 1.05447761001317 0.35023235926272855 1.0296373036763489
thorax -5.139056979223431 0.24541239749998978 1.9083325298880705
lowerneck -16.06169020907917 -2.8401278571615367 -3.028237262492186
upperneck 19.250904452083347 -3.624287863396972 1.760727137257086
head 8.780190566667802 -1.7229351386389273 0.5237991723635975
lclavicle -9.743541679988107e-16 -2.718654572623178e-15
lhumerus -27.623667771965867 1.4276506022811875 81.29707289754363
lradius 26.651908110231787
lwrist 4.996309321809906
lhand -26.84181559679173 24.55347775782763
lfingers nan
lthumb -0.15364274322808802 54.906516444617694
rclavicle -6.540685498938449e-16 -2.3549283426657244e-15
rhumerus -29.905580331536235 -19.98684328026107 -80.12221157171948
rradius 21.24925855383112
rwrist 2.596307871818847
rhand -18.29804222552291 1.0
rfingers nan
rthumb 7.935121248615903 -7.331661798045564
